<svg xmlns="http://www.w3.org/2000/svg" viewBox="0 0 774.03 144.43"><g id="Layer_2" data-name="Layer 2"><g id="Layer_1-2" data-name="Layer 1"><path d="M0,2H51.66q33.11,0,51.76,18.9T122.07,72q0,32.82-18.8,51.42T51.66,142H0ZM49.61,118.36q21.87,0,32.42-13.18Q90.63,94.25,90.62,72A88.87,88.87,0,0,0,89,53a42.69,42.69,0,0,0-6.15-14.21q-8.88-13.19-33.2-13.18H30.27v92.77Z"/><path d="M230.84,99.22H157.6q0,12.5,6,18.94t17.29,6.45q9.27,0,14.36-4T202,108.4l27.15,2.44q-4.31,16.69-16.6,25.15t-31.74,8.44q-23.15,0-36.43-13.28Q130,117,130,91.8t14.26-39q13.58-13.28,36.42-13.28,23.06,0,36.53,14.06Q231.42,69,230.84,99.22ZM162.77,66.41a26.61,26.61,0,0,0-5,13.57h44.63q-.87-9.57-5.86-15.23Q191.1,59,180.64,59,168.45,59,162.77,66.41Z"/><path d="M242.93,2h48.44L309,68.36q6.82,25.29,10.44,44.43h.4l4.59-21.19q1.06-4.68,5.76-22.85L347.71,2h47.86V142h-28V61.62q0-19.33.78-38.18h-.59q-5.57,22-11.13,42.18L335.8,142H302.6L281.8,64.75l-4-15.34-7-26h-.58L270.57,44c.06,3.06.13,6.07.19,9s.11,5.19.15,6.69,0,2.41,0,2.73V142h-28Z"/><path d="M407.66,92q0-23.23,14.16-37.84t37.89-14.6q23.54,0,37.64,14.6T511.46,92q0,23.64-14.2,38t-37.55,14.4q-24.42,0-38.24-14T407.66,92Zm68.79,25.1q5-7.32,5-25.1t-5.07-25.1q-5.09-7.32-16.7-7.32t-16.8,7.37q-5.18,7.38-5.18,25t5.13,25.1q5.13,7.32,16.85,7.32T476.45,117.09Z"/><path d="M523.46,0h27.93V28.81H523.46Zm0,42h27.93V142H523.46Z"/><path d="M661.82,80.76V142H633.59V83.2a45.54,45.54,0,0,0-1.07-11.37,14.85,14.85,0,0,0-4.1-6.79,13.69,13.69,0,0,0-5.28-3.17,27.55,27.55,0,0,0-7.71-.83,16.69,16.69,0,0,0-13.28,6.39q-5.37,6.41-5.37,20V142H568.85V42h27.73V57A25.32,25.32,0,0,1,607.81,43.9q7.71-4.35,18.36-4.35,9.38,0,15.48,2.2A30.21,30.21,0,0,1,652.83,49a27,27,0,0,1,7.08,12.41Q661.82,68.65,661.82,80.76Z"/><path d="M774,99.22H700.76q0,12.5,6,18.94T724,124.61q9.29,0,14.36-4t6.83-12.16l27.15,2.44q-4.29,16.69-16.6,25.15T724,144.43q-23.14,0-36.42-13.28Q673.12,117,673.12,91.8t14.26-39Q701,39.55,723.81,39.55q23,0,36.52,14.06Q774.6,69,774,99.22ZM705.94,66.41A26.43,26.43,0,0,0,701,80h44.63q-.89-9.57-5.86-15.23Q734.26,59,723.81,59,711.6,59,705.94,66.41Z"/></g></g></svg>